TITLE "RauteMusik Mix 20.12.2020 (Deep House & Progressive House  & Techno & Psy - Trance & Hardtrance)"
PERFORMER "DJFreezeT"
FILE "RauteMusik Mix 20.12.2020 (Deep House & Progressive House  & Techno & Psy - Trance & Hardtrance).mp3" MP3
	TRACK 01 AUDIO
		TITLE "X."
		PERFORMER "Adriatique"
		INDEX 01 00:00:00
	TRACK 02 AUDIO
		TITLE "Fears And Dreams (Original Mix)"
		PERFORMER "Third Harmony"
		INDEX 01 05:24:00
	TRACK 03 AUDIO
		TITLE "Too Much Information (Laolu Remix; Edit)"
		PERFORMER "Dele Sosimi Afrobeat Orchestra"
		INDEX 01 10:39:00
	TRACK 04 AUDIO
		TITLE "Ankh (Onetwo MX Remix)"
		PERFORMER "Edem, Govan"
		INDEX 01 17:06:00
	TRACK 05 AUDIO
		TITLE "For All Time (feat. Hendrik Burkhard) (Extended Mix)"
		PERFORMER "Jody Wisternoff"
		INDEX 01 23:21:00
	TRACK 06 AUDIO
		TITLE "Bead (Original Mix)"
		PERFORMER "Einmusik"
		INDEX 01 29:02:00
	TRACK 07 AUDIO
		TITLE "La Danse du Scorpion"
		PERFORMER "Sebastien Leger"
		INDEX 01 34:27:00
	TRACK 08 AUDIO
		TITLE "La Bombo (Solid Stone Remix)"
		PERFORMER "Paul Thomas & Solid Stone"
		INDEX 01 40:59:00
	TRACK 09 AUDIO
		TITLE "Crossfade (Maceo Plex Mix)"
		PERFORMER "GusGus"
		INDEX 01 46:19:00
	TRACK 10 AUDIO
		TITLE "Time (Original Mix)"
		PERFORMER "Klangkarussell"
		INDEX 01 52:20:00
	TRACK 11 AUDIO
		TITLE "Missing Path (Original Mix)"
		PERFORMER "Anysense & Un:said"
		INDEX 01 56:19:00
	TRACK 12 AUDIO
		TITLE "Bombay"
		PERFORMER "Space Food"
		INDEX 01 61:41:00
	TRACK 13 AUDIO
		TITLE "Wächter der Nacht (Original Mix)"
		PERFORMER "SHDW & Obscure Shape"
		INDEX 01 66:33:00
	TRACK 14 AUDIO
		TITLE "Karma"
		PERFORMER "HOSH"
		INDEX 01 71:04:00
	TRACK 15 AUDIO
		TITLE "Olympia (Original Mix)"
		PERFORMER "Alexey Union"
		INDEX 01 75:28:00
	TRACK 16 AUDIO
		TITLE "Afterglow"
		PERFORMER "Paul Taylor"
		INDEX 01 81:08:00
	TRACK 17 AUDIO
		TITLE "Stranger"
		PERFORMER "Philter"
		INDEX 01 85:38:00
	TRACK 18 AUDIO
		TITLE "Hypersphere (Original Mix)"
		PERFORMER "Skizologic"
		INDEX 01 91:52:00
	TRACK 19 AUDIO
		TITLE "All of You (Remix)"
		PERFORMER "Thomas Schumacher, Caitlin"
		INDEX 01 96:40:00
	TRACK 20 AUDIO
		TITLE "White Horse Conquest (Original Mix)"
		PERFORMER "A. Skomoroh"
		INDEX 01 102:16:00
	TRACK 21 AUDIO
		TITLE "Bright (Original Mix)"
		PERFORMER "Patrik Berg"
		INDEX 01 107:04:00
	TRACK 22 AUDIO
		TITLE "Bengal"
		PERFORMER "Hidden Empire"
		INDEX 01 112:37:00
	TRACK 23 AUDIO
		TITLE "Levitate"
		PERFORMER "Mario Ochoa"
		INDEX 01 118:05:00
	TRACK 24 AUDIO
		TITLE "Eyes Wide Shut (Original Mix)"
		PERFORMER "Raul Facio"
		INDEX 01 123:00:00
	TRACK 25 AUDIO
		TITLE "Regular (Original Mix)"
		PERFORMER "Soolver"
		INDEX 01 128:21:00
	TRACK 26 AUDIO
		TITLE "EQ64 (Original Mix)"
		PERFORMER "Weska"
		INDEX 01 134:31:00
	TRACK 27 AUDIO
		TITLE "The Fall (Extended Mix)"
		PERFORMER "Tempo Giusto"
		INDEX 01 138:35:00
	TRACK 28 AUDIO
		TITLE "Trinity (Extended Mix)"
		PERFORMER "Vlind & Asteroid & Gary Leroy"
		INDEX 01 144:12:00
	TRACK 29 AUDIO
		TITLE "Vaveyla (Original Mix)"
		PERFORMER "Astral Legacy"
		INDEX 01 149:38:00
	TRACK 30 AUDIO
		TITLE "Chakra (Original Mix)"
		PERFORMER "Gerrox"
		INDEX 01 152:52:00
	TRACK 31 AUDIO
		TITLE "Pattern"
		PERFORMER "Charlotte De Witte"
		INDEX 01 157:00:00
	TRACK 32 AUDIO
		TITLE "Amabey"
		PERFORMER "Space Food"
		INDEX 01 161:55:00
	TRACK 33 AUDIO
		TITLE "Papilion (Original Mix)"
		PERFORMER "ARTBAT"
		INDEX 01 166:55:00
	TRACK 34 AUDIO
		TITLE "Enjoy Infinity (Original Mix)"
		PERFORMER "PETER PAHN"
		INDEX 01 171:13:00
	TRACK 35 AUDIO
		TITLE "Instinct (Original Mix)"
		PERFORMER "Solitek"
		INDEX 01 176:08:00
	TRACK 36 AUDIO
		TITLE "Heavy"
		PERFORMER "Veerus"
		INDEX 01 180:57:00
	TRACK 37 AUDIO
		TITLE "Pain Thing (Original Mix)"
		PERFORMER "Secret Cinema & Reinier Zonneveld"
		INDEX 01 185:19:00
	TRACK 38 AUDIO
		TITLE "Hypnotized"
		PERFORMER "Amelie Lens"
		INDEX 01 189:38:00
	TRACK 39 AUDIO
		TITLE "Chasing the Sun (Original Mix)"
		PERFORMER "Nikolay Kirov"
		INDEX 01 193:13:00
